<?xml version="1.0" encoding="UTF-8" standalone="no"?>
<!DOCTYPE svg PUBLIC "-//W3C//DTD SVG 1.1//EN"
 "http://www.w3.org/Graphics/SVG/1.1/DTD/svg11.dtd">
<!-- Generated by graphviz version 2.40.1 (20161225.0304)
 -->
<!-- Title: dependencies Pages: 1 -->
<svg width="770pt" height="284pt"
 viewBox="0.00 0.00 770.00 284.00" xmlns="http://www.w3.org/2000/svg" xmlns:xlink="http://www.w3.org/1999/xlink">
<g id="graph0" class="graph" transform="scale(1 1) rotate(0) translate(4 280)">
<title>dependencies</title>
<polygon fill="#ffffff" stroke="transparent" points="-4,4 -4,-280 766,-280 766,4 -4,4"/>
<text text-anchor="start" x="360.0091" y="-42.4" font-family="sans-serif" font-weight="bold" font-size="14.00" fill="#000000">Legend</text>
<polygon fill="#ffffb3" stroke="transparent" points="147,-10 147,-30 167,-30 167,-10 147,-10"/>
<text text-anchor="start" x="170.629" y="-15.4" font-family="sans-serif" font-size="14.00" fill="#000000"> &#160;Declarations</text>
<polygon fill="#8dd3c7" stroke="transparent" points="260,-10 260,-30 280,-30 280,-10 260,-10"/>
<text text-anchor="start" x="283.7251" y="-15.4" font-family="sans-serif" font-size="14.00" fill="#000000"> &#160;Module</text>
<polygon fill="#80b1d3" stroke="transparent" points="346,-10 346,-30 366,-30 366,-10 346,-10"/>
<text text-anchor="start" x="369.7812" y="-15.4" font-family="sans-serif" font-size="14.00" fill="#000000"> &#160;Bootstrap</text>
<polygon fill="#fdb462" stroke="transparent" points="443,-10 443,-30 463,-30 463,-10 443,-10"/>
<text text-anchor="start" x="466.6732" y="-15.4" font-family="sans-serif" font-size="14.00" fill="#000000"> &#160;Providers</text>
<polygon fill="#fb8072" stroke="transparent" points="539,-10 539,-30 559,-30 559,-10 539,-10"/>
<text text-anchor="start" x="562.7258" y="-15.4" font-family="sans-serif" font-size="14.00" fill="#000000"> &#160;Exports</text>
<g id="clust1" class="cluster">
<title>cluster_AppModule</title>
<polygon fill="none" stroke="#000000" stroke-dasharray="1,5" points="8,-70 8,-268 754,-268 754,-70 8,-70"/>
</g>
<g id="clust2" class="cluster">
<title>cluster_AppModule_declarations</title>
<polygon fill="none" stroke="#000000" points="16,-78 16,-130 746,-130 746,-78 16,-78"/>
</g>
<g id="clust10" class="cluster">
<title>cluster_AppModule_bootstrap</title>
<polygon fill="none" stroke="#000000" points="313,-208 313,-260 437,-260 437,-208 313,-208"/>
</g>
<!-- AppComponent -->
<g id="node1" class="node">
<title>AppComponent</title>
<polygon fill="#ffffb3" stroke="#000000" points="737.9399,-122 632.0601,-122 632.0601,-86 737.9399,-86 737.9399,-122"/>
<text text-anchor="middle" x="685" y="-99.8" font-family="Times,serif" font-size="14.00" fill="#000000">AppComponent</text>
</g>
<!-- AppModule -->
<g id="node6" class="node">
<title>AppModule</title>
<polygon fill="#8dd3c7" stroke="#000000" points="416.6571,-187 413.6571,-191 392.6571,-191 389.6571,-187 333.3429,-187 333.3429,-151 416.6571,-151 416.6571,-187"/>
<text text-anchor="middle" x="375" y="-164.8" font-family="Times,serif" font-size="14.00" fill="#000000">AppModule</text>
</g>
<!-- AppComponent&#45;&gt;AppModule -->
<g id="edge1" class="edge">
<title>AppComponent&#45;&gt;AppModule</title>
<path fill="none" stroke="#000000" d="M685,-122.2843C685,-143.3211 685,-175 685,-175 685,-175 426.808,-175 426.808,-175"/>
<polygon fill="#000000" stroke="#000000" points="426.808,-171.5001 416.808,-175 426.8079,-178.5001 426.808,-171.5001"/>
</g>
<!-- CrisisDetailComponent -->
<g id="node2" class="node">
<title>CrisisDetailComponent</title>
<polygon fill="#ffffb3" stroke="#000000" points="614.2077,-122 465.7923,-122 465.7923,-86 614.2077,-86 614.2077,-122"/>
<text text-anchor="middle" x="540" y="-99.8" font-family="Times,serif" font-size="14.00" fill="#000000">CrisisDetailComponent</text>
</g>
<!-- CrisisDetailComponent&#45;&gt;AppModule -->
<g id="edge2" class="edge">
<title>CrisisDetailComponent&#45;&gt;AppModule</title>
<path fill="none" stroke="#000000" d="M540,-122.0225C540,-139.3734 540,-163 540,-163 540,-163 427.0634,-163 427.0634,-163"/>
<polygon fill="#000000" stroke="#000000" points="427.0634,-159.5001 417.0634,-163 427.0634,-166.5001 427.0634,-159.5001"/>
</g>
<!-- CrisisLayerComponent -->
<g id="node3" class="node">
<title>CrisisLayerComponent</title>
<polygon fill="#ffffb3" stroke="#000000" points="448.1428,-122 301.8572,-122 301.8572,-86 448.1428,-86 448.1428,-122"/>
<text text-anchor="middle" x="375" y="-99.8" font-family="Times,serif" font-size="14.00" fill="#000000">CrisisLayerComponent</text>
</g>
<!-- CrisisLayerComponent&#45;&gt;AppModule -->
<g id="edge3" class="edge">
<title>CrisisLayerComponent&#45;&gt;AppModule</title>
<path fill="none" stroke="#000000" d="M375,-122.1061C375,-122.1061 375,-140.991 375,-140.991"/>
<polygon fill="#000000" stroke="#000000" points="371.5001,-140.9909 375,-150.991 378.5001,-140.991 371.5001,-140.9909"/>
</g>
<!-- CrisisListComponent -->
<g id="node4" class="node">
<title>CrisisListComponent</title>
<polygon fill="#ffffb3" stroke="#000000" points="283.7786,-122 148.2214,-122 148.2214,-86 283.7786,-86 283.7786,-122"/>
<text text-anchor="middle" x="216" y="-99.8" font-family="Times,serif" font-size="14.00" fill="#000000">CrisisListComponent</text>
</g>
<!-- CrisisListComponent&#45;&gt;AppModule -->
<g id="edge4" class="edge">
<title>CrisisListComponent&#45;&gt;AppModule</title>
<path fill="none" stroke="#000000" d="M216,-122.0225C216,-139.3734 216,-163 216,-163 216,-163 323.2246,-163 323.2246,-163"/>
<polygon fill="#000000" stroke="#000000" points="323.2247,-166.5001 333.2246,-163 323.2246,-159.5001 323.2247,-166.5001"/>
</g>
<!-- MapComponent -->
<g id="node5" class="node">
<title>MapComponent</title>
<polygon fill="#ffffb3" stroke="#000000" points="130.4916,-122 23.5084,-122 23.5084,-86 130.4916,-86 130.4916,-122"/>
<text text-anchor="middle" x="77" y="-99.8" font-family="Times,serif" font-size="14.00" fill="#000000">MapComponent</text>
</g>
<!-- MapComponent&#45;&gt;AppModule -->
<g id="edge5" class="edge">
<title>MapComponent&#45;&gt;AppModule</title>
<path fill="none" stroke="#000000" d="M77,-122.2843C77,-143.3211 77,-175 77,-175 77,-175 323.2506,-175 323.2506,-175"/>
<polygon fill="#000000" stroke="#000000" points="323.2506,-178.5001 333.2506,-175 323.2506,-171.5001 323.2506,-178.5001"/>
</g>
<!-- AppComponent  -->
<g id="node7" class="node">
<title>AppComponent </title>
<polygon fill="#80b1d3" stroke="#000000" points="429.439,-252 320.561,-252 320.561,-216 429.439,-216 429.439,-252"/>
<text text-anchor="middle" x="375" y="-229.8" font-family="Times,serif" font-size="14.00" fill="#000000">AppComponent </text>
</g>
<!-- AppModule&#45;&gt;AppComponent  -->
<g id="edge6" class="edge">
<title>AppModule&#45;&gt;AppComponent </title>
<path fill="none" stroke="#000000" stroke-dasharray="1,5" d="M375,-187.1061C375,-187.1061 375,-205.991 375,-205.991"/>
<polygon fill="#000000" stroke="#000000" points="371.5001,-205.9909 375,-215.991 378.5001,-205.991 371.5001,-205.9909"/>
</g>
</g>
</svg>
